<svg width="34" height="34" viewBox="0 0 34 34" fill="none" xmlns="http://www.w3.org/2000/svg">
<path d="M20.1565 11.4617L18.2352 11.1828L17.3763 9.44297C17.2214 9.13307 16.7786 9.12865 16.6237 9.44297L15.7648 11.1828L13.8435 11.4617C13.4982 11.5104 13.3609 11.9354 13.6089 12.1789L14.999 13.5336L14.6714 15.4461C14.6138 15.787 14.9724 16.0526 15.2823 15.8888L17 14.9857L18.7177 15.8888C19.0232 16.0482 19.3862 15.7914 19.3286 15.4461L19.001 13.5336L20.3911 12.1789C20.6391 11.9354 20.5018 11.5104 20.1565 11.4617ZM24.0833 8.14583V6.02083C24.0833 5.63125 23.7646 5.3125 23.375 5.3125H10.625C10.2354 5.3125 9.91667 5.63125 9.91667 6.02083V8.14583H4.95833C4.56875 8.14583 4.25 8.46458 4.25 8.85417V11.5458C4.25 14.2154 7.2737 17.0885 11.3156 17.8589C12.5286 20.4221 14.3305 21.7635 15.9375 22.1708V25.8542H13.1042C12.1258 25.8542 11.3333 26.6466 11.3333 27.625C11.3333 27.8198 11.4927 27.9792 11.6875 27.9792H22.3125C22.5073 27.9792 22.6667 27.8198 22.6667 27.625C22.6667 26.6466 21.8742 25.8542 20.8958 25.8542H18.0625V22.1708C19.6695 21.7591 21.4714 20.4221 22.6844 17.8589C26.7174 17.093 29.75 14.2198 29.75 11.5458V8.85417C29.75 8.46458 29.4312 8.14583 29.0417 8.14583H24.0833ZM6.375 11.5458V10.2708H9.91667C9.91667 12.0063 10.0096 13.6443 10.4612 15.4417C8.02188 14.6049 6.375 12.8341 6.375 11.5458ZM17 20.1875C14.6536 20.1875 12.0417 16.7167 12.0417 10.625V7.4375H21.9583V10.625C21.9583 16.8451 19.2667 20.1875 17 20.1875ZM27.625 11.5458C27.625 12.8341 25.9781 14.6049 23.5388 15.4417C23.9904 13.6443 24.0833 12.0018 24.0833 10.2708H27.625V11.5458Z" fill="white"/>
</svg>
