<svg width="34" height="34" viewBox="0 0 34 34" fill="none" xmlns="http://www.w3.org/2000/svg">
<path d="M21.25 19.7321C19.8887 19.7321 19.2341 20.4911 17 20.4911C14.7659 20.4911 14.1161 19.7321 12.75 19.7321C9.23047 19.7321 6.375 22.5876 6.375 26.1071V27.3214C6.375 28.5784 7.39481 29.5982 8.65179 29.5982H25.3482C26.6052 29.5982 27.625 28.5784 27.625 27.3214V26.1071C27.625 22.5876 24.7695 19.7321 21.25 19.7321ZM25.3482 27.3214H8.65179V26.1071C8.65179 23.8493 10.4922 22.0089 12.75 22.0089C13.4425 22.0089 14.5667 22.7679 17 22.7679C19.4523 22.7679 20.5527 22.0089 21.25 22.0089C23.5078 22.0089 25.3482 23.8493 25.3482 26.1071V27.3214ZM17 18.9732C20.7709 18.9732 23.8304 15.9138 23.8304 12.1429C23.8304 8.37193 20.7709 5.3125 17 5.3125C13.2291 5.3125 10.1696 8.37193 10.1696 12.1429C10.1696 15.9138 13.2291 18.9732 17 18.9732ZM17 7.58929C19.5092 7.58929 21.5536 9.63365 21.5536 12.1429C21.5536 14.6521 19.5092 16.6964 17 16.6964C14.4908 16.6964 12.4464 14.6521 12.4464 12.1429C12.4464 9.63365 14.4908 7.58929 17 7.58929Z" fill="white"/>
</svg>
