<svg width="34" height="34" viewBox="0 0 34 34" fill="none" xmlns="http://www.w3.org/2000/svg">
<path d="M28.6871 8.14583H10.6374L10.2511 6.171C10.1535 5.67233 9.71647 5.3125 9.20833 5.3125H4.78125C4.48787 5.3125 4.25 5.55037 4.25 5.84375V6.90625C4.25 7.19963 4.48787 7.4375 4.78125 7.4375H8.33354L11.4145 23.1847C10.9259 23.6938 10.625 24.3845 10.625 25.1458C10.625 26.7106 11.8935 27.9792 13.4583 27.9792C15.0231 27.9792 16.2917 26.7106 16.2917 25.1458C16.2922 24.6484 16.1611 24.1596 15.9117 23.7292H22.3384C22.0889 24.1596 21.9578 24.6484 21.9584 25.1458C21.9584 26.7106 23.2269 27.9792 24.7917 27.9792C26.3565 27.9792 27.625 26.7106 27.625 25.1458C27.625 24.3429 27.2905 23.6187 26.754 23.1031L26.7998 22.8925C26.9438 22.2302 26.4393 21.6042 25.7616 21.6042H13.2706L12.8549 19.4792H26.6854C27.1852 19.4792 27.6174 19.1308 27.7236 18.6424L29.7253 9.43403C29.8693 8.77178 29.3648 8.14583 28.6871 8.14583ZM13.4583 26.2083C12.8725 26.2083 12.3958 25.7317 12.3958 25.1458C12.3958 24.56 12.8725 24.0833 13.4583 24.0833C14.0442 24.0833 14.5208 24.56 14.5208 25.1458C14.5208 25.7317 14.0442 26.2083 13.4583 26.2083ZM24.7917 26.2083C24.2058 26.2083 23.7292 25.7317 23.7292 25.1458C23.7292 24.56 24.2058 24.0833 24.7917 24.0833C25.3775 24.0833 25.8542 24.56 25.8542 25.1458C25.8542 25.7317 25.3775 26.2083 24.7917 26.2083ZM25.8293 17.3542H12.4392L11.0531 10.2708H27.369L25.8293 17.3542Z" fill="white"/>
</svg>
