<svg width="34" height="34" viewBox="0 0 34 34" fill="none" xmlns="http://www.w3.org/2000/svg">
<path d="M29.4957 14.8496L26.9125 12.7268V8.50031C26.9125 8.40638 26.8752 8.3163 26.8087 8.24988C26.7423 8.18346 26.6522 8.14615 26.5583 8.14615H25.1416C25.0507 8.14734 24.9638 8.18344 24.8988 8.24698C24.8337 8.31051 24.7956 8.39662 24.7923 8.48747V10.9848L18.5887 5.88833C18.143 5.51659 17.581 5.31299 17.0007 5.31299C16.4203 5.31299 15.8584 5.51659 15.4127 5.88833L4.50568 14.8496C4.43434 14.9093 4.37546 14.9825 4.3324 15.065C4.28934 15.1474 4.26295 15.2376 4.25473 15.3302C4.2465 15.4229 4.25661 15.5163 4.28448 15.605C4.31235 15.6938 4.35742 15.7762 4.41713 15.8475L4.87047 16.392C4.99103 16.536 5.16382 16.6262 5.35085 16.6428C5.53788 16.6594 5.72385 16.601 5.86789 16.4806L7.08401 15.4823V18.0628H7.07028V27.2711C7.0718 27.4593 7.14752 27.6393 7.28099 27.7719C7.41446 27.9045 7.59488 27.9791 7.78305 27.9795H26.209C26.3969 27.9795 26.577 27.9049 26.7099 27.772C26.8427 27.6392 26.9173 27.459 26.9173 27.2711V15.4823L28.1348 16.4823C28.2788 16.6028 28.4648 16.6611 28.6518 16.6445C28.8389 16.6279 29.0116 16.5377 29.1322 16.3938L29.5864 15.8493C29.6463 15.7778 29.6914 15.6951 29.7193 15.6061C29.7471 15.5171 29.7571 15.4235 29.7487 15.3306C29.7402 15.2377 29.7136 15.1474 29.6701 15.0649C29.6267 14.9824 29.5674 14.9092 29.4957 14.8496ZM24.7923 15.2295H24.783V25.8545H19.834V19.4795C19.834 19.1038 19.6848 18.7434 19.4191 18.4777C19.1534 18.2121 18.7931 18.0628 18.4173 18.0628H15.584C15.2083 18.0628 14.848 18.2121 14.5823 18.4777C14.3166 18.7434 14.1673 19.1038 14.1673 19.4795V25.8545H9.19529V13.9226L9.20901 13.9115V13.7345L17.0007 7.33378L24.7923 13.7362V15.2295Z" fill="white"/>
</svg>
